<?xml version="1.0" encoding="UTF-8" standalone="no"?>
<!-- Created with Inkscape (http://www.inkscape.org/) -->

<svg
   xmlns:svg="http://www.w3.org/2000/svg"
   xmlns="http://www.w3.org/2000/svg"
   version="1.0"
   width="486.33548"
   height="100"
   id="svg548">
  <defs
     id="defs550" />
  <path
     d="m 84.716671,30.391226 c 5.25361,0.93458 36.268409,10.24 32.781559,22.44329 -7.94845,28.48793 -61.13637,38.03005 -100.46497,39.38466 31.362814,-6.45502 70.137021,-18.45587 79.952666,-36.82924 8.678824,-16.96165 -9.153005,-22.19399 -12.269255,-24.99871 z"
     id="path600"
     style="fill-rule:evenodd" />
  <path
     d="M 98.474241,99.220446 C 97.072371,93.768736 83.520976,40.498506 54.54941,40.342736 42.088551,39.719686 29.921495,53.851996 23.262666,69.749096 16.195565,86.093206 16.005538,99.840346 5.4845306,99.999256 -4.6262938,100.15424 1.4346852,76.011926 6.2633466,58.411076 11.092006,38.940866 26.66819,0.1562656 49.409224,4.9560049e-4 72.15046,-0.1552644 86.480671,36.448856 89.751501,46.105786 c 7.476635,24.29886 8.56698,46.72837 8.72274,53.11466 z"
     id="path601"
     style="fill:#759fbf;fill-rule:evenodd" />
  <path
     d="m 133.27777,48.677356 2.43137,-14.498 c 2.3518,-0.93438 8.43445,-2.66727 15.75985,-2.73816 24.55544,-0.2367 21.86946,18.6459 21.98033,23.57046 l -0.13016,34.80589 -11.56291,2.29096 -0.002,-5.43931 c -1.69134,1.14332 -5.07658,5.43931 -14.09923,5.72504 -8.46163,0 -20.87148,-5.15338 -20.58989,-23.19001 0.002,-16.0318 13.53604,-20.13048 23.12798,-20.05762 7.60325,0.0593 10.02103,4.4043 9.87157,4.14004 0.15931,-4.55002 -0.65062,-7.90139 -9.43854,-8.1499 -5.30757,-0.15183 -17.35411,3.59397 -17.3482,3.54061 m 16.49199,13.0847 c -4.98737,-0.0711 -10.20771,3.59574 -10.29514,8.58765 0.0177,5.58306 5.63997,9.16325 9.87157,9.16325 4.22983,0 10.73584,-3.15052 10.71832,-8.87752 0,-6.29669 -5.50173,-8.85566 -10.29475,-8.87338 z"
     id="path551"
     style="fill-rule:evenodd" />
  <path
     d="m 180.61226,34.742546 -0.15202,57.63554 13.4746,-3.02882 0.0644,-32.67837 c 0.009,-4.86568 6.29315,-10.6234 14.16796,-10.6234 1.67579,-3.36772 4.82847,-11.96167 5.59645,-13.91708 -17.59357,0.15576 -17.82475,5.80439 -20.88823,8.61699 -0.0252,-5.29792 0,-8.47875 0,-8.47875 l -12.26315,2.47389 z"
     id="path552"
     style="fill-rule:evenodd" />
  <path
     d="m 255.84925,42.301886 c -0.12997,-0.0662 -6.44911,-9.7156 -20.31224,-9.626 -12.98486,-0.0896 -27.55689,5.65237 -27.82076,29.76436 0.0866,21.196 13.9537,29.3203 27.81879,29.32227 14.83788,0 20.7553,-10.51234 21.10976,-10.77523 -1.76834,-1.67913 -8.39073,-8.56638 -8.39073,-8.56638 0,0 -4.15106,7.24171 -12.18734,7.41716 -8.03825,0.17723 -15.0151,-7.68222 -15.10175,-17.39782 -0.0906,-9.71561 4.94465,-16.4278 14.48145,-16.33821 10.68681,0 13.07348,4.67861 13.07348,4.67861 l 7.32934,-8.47876 z"
     id="path553"
     style="fill-rule:evenodd" />
  <path
     d="m 260.70725,92.027576 12.53785,-2.64916 0.1851,-35.3293 c 0.0315,-3.70484 4.85013,-9.44898 12.88641,-9.36115 7.68379,0 9.38517,5.56494 9.36351,6.26991 l 0.17526,40.89227 12.36457,-2.56133 0.0886,-43.36597 c 0.0866,-4.1741 -8.23911,-12.89645 -21.63947,-12.80488 -9.67661,0.12859 -12.81354,3.87025 -13.24479,4.15086 l 0,-23.7595 -12.71902,3.44568 0.002,75.07257 z"
     id="path554"
     style="fill-rule:evenodd" />
  <path
     d="m 319.17063,22.342736 5.7402,-1.5019 0.0906,68.36035 -5.83078,1.05962 0,-67.91807 z"
     id="path555"
     style="fill-rule:evenodd" />
  <path
     d="m 334.71347,42.566746 5.03326,-2.29647 -0.0866,49.01854 -4.858,1.05962 -0.0886,-47.78169 z m -1.14804,-17.66268 4.06244,-3.3561 3.3575,3.70859 -4.06444,3.44372 -3.3555,-3.79621 z"
     id="path556"
     style="fill-rule:evenodd" />
  <path
     d="m 349.1969,41.507126 5.7402,-1.23685 0,10.24748 c 0,0.44012 3.18023,-11.48433 18.3706,-11.39473 14.74927,-0.0876 17.13197,11.30514 17.04534,13.86647 l 0.0866,36.03427 -5.03127,1.14942 0.065,-35.59436 c 0.0611,-1.04013 -2.27243,-9.80323 -12.69537,-9.71561 -10.421,0.0896 -17.6617,7.77359 -17.6617,12.62962 l 0,31.35567 -5.8308,1.58953 -0.0886,-48.93091 z"
     id="path567"
     style="fill-rule:evenodd" />
  <path
     d="m 440.49857,88.707116 -5.7402,1.23665 0,-10.24728 c 0,-0.44032 -3.18223,11.48433 -18.37063,11.39473 -14.74924,0.0876 -17.13197,-11.30514 -17.04534,-13.86647 l -0.0866,-36.03447 6.0986,-1.30104 0,35.59416 c 0,0.97199 1.14017,9.95525 11.5631,9.86743 10.42097,-0.0896 17.7385,-6.48022 17.8153,-15.97784 l 0,-28.08346 5.67717,-1.51332 0.0886,48.93091 z"
     id="path558"
     style="fill-rule:evenodd" />
  <path
     d="m 451.87064,39.921526 -4.03094,3.19443 15.36958,20.00996 -16.51171,23.51197 4.25937,3.11842 15.5212,-21.83698 15.90124,21.9888 3.9561,-3.19423 -17.0414,-23.51 13.69573,-19.32823 -4.1865,-3.50024 -12.4768,17.88284 -14.45587,-18.33674 z"
     id="path559"
     style="fill-rule:evenodd" />
</svg>
