<?xml version="1.0" encoding="UTF-8" standalone="no"?>
<!DOCTYPE svg PUBLIC "-//W3C//DTD SVG 20010904//EN"
"http://www.w3.org/TR/2001/REC-SVG-20010904/DTD/svg10.dtd">
<!-- Created with Sodipodi ("http://www.sodipodi.com/") -->
<svg
   xmlns="http://www.w3.org/2000/svg"
   xmlns:xlink="http://www.w3.org/1999/xlink"
   version="1.0"
   x="0"
   y="0"
   width="567.5"
   height="567.5"
   id="svg602"
   xml:space="preserve"
   xmlns:sodipodi="http://sodipodi.sourceforge.net/DTD/sodipodi-0.dtd"
   sodipodi:version="0.34"
   sodipodi:docname="/home/bbp/art/svg/arch/archlinux_logo_aqua.svg"
   sodipodi:docbase="/home/bbp/art/svg/arch"><sodipodi:namedview
   id="base" /><defs
   id="defs604"><linearGradient
   id="linearGradient655"><stop
   style="stop-color:#ffffff;stop-opacity:0.9176;"
   offset="0"
   id="stop656" /><stop
   style="stop-color:#ffffff;stop-opacity:0;"
   offset="1"
   id="stop657" /></linearGradient><linearGradient
   id="linearGradient652"><stop
   style="stop-color:#ffffff;stop-opacity:0.7412;"
   offset="0"
   id="stop653" /><stop
   style="stop-color:#ffffff;stop-opacity:0;"
   offset="1"
   id="stop654" /></linearGradient><linearGradient
   id="linearGradient649"><stop
   style="stop-color:#ffffff;stop-opacity:1;"
   offset="0"
   id="stop650" /><stop
   style="stop-color:#ffffff;stop-opacity:1;"
   offset="1"
   id="stop651" /></linearGradient><linearGradient
   id="linearGradient643"><stop
   style="stop-color:#001e87;stop-opacity:1;"
   offset="0"
   id="stop644" /><stop
   style="stop-color:#85aee8;stop-opacity:1;"
   offset="1"
   id="stop645" /></linearGradient><linearGradient
   id="linearGradient639"><stop
   style="stop-color:#000000;stop-opacity:0.6667;"
   offset="0"
   id="stop640" /><stop
   style="stop-color:#ffffff;stop-opacity:0.6667;"
   offset="1"
   id="stop641" /></linearGradient><linearGradient
   x1="0.51162791"
   y1="0.2421875"
   x2="0.50387597"
   y2="0.84375"
   id="linearGradient642"
   xlink:href="#linearGradient643" /><linearGradient
   x1="0.68115938"
   y1="3.12520564e-2"
   x2="9.6617993e-3"
   y2="1.109375"
   id="linearGradient646"
   xlink:href="#linearGradient639" /><linearGradient
   x1="0.64341086"
   y1="7.8125e-2"
   x2="0.72093022"
   y2="0.4375"
   id="linearGradient648"
   xlink:href="#linearGradient652" /><linearGradient
   x1="0.63565892"
   y1="7.03115836e-2"
   x2="0.62790698"
   y2="0.34375"
   id="linearGradient659"
   xlink:href="#linearGradient652" /><linearGradient
   x1="0.91787434"
   y1="0.10156304"
   x2="0.78743958"
   y2="0.24218753"
   id="linearGradient662"
   xlink:href="#linearGradient655" /></defs><path
   d="M 417.4724 158.454 C 415.8475 147.9248 579.5791 189.9576 570.1145 261.7321 C 564.0291 335.1078 447.2766 403.0652 236.266 440.6846 C 138.0509 454.3278 94.50159 455.4656 94.44762 448.322 C 93.52827 442.0379 408.9416 406.2417 486.4808 268.677 C 528.5709 188.8901 419.3099 170.3611 417.4724 158.454 z "
   transform="translate(-9.142345,24.39393)"
   style="font-size:12;fill:url(#linearGradient646);fill-rule:evenodd;stroke-width:2.2875;"
   id="path632" /><path
   d="M 401.8561 148.2576 C 400.2312 137.7284 556.5976 188.1897 547.133 259.9642 C 509.2271 320.9653 424.2951 401.2973 213.2845 438.9167 C 115.0694 452.5599 71.5201 453.6977 71.46613 446.5541 C 70.54678 440.27 390.3796 408.8933 463.4993 266.9091 C 523.2675 247.2276 403.6937 160.1647 401.8561 148.2576 z "
   style="font-size:12;fill:url(#linearGradient662);fill-rule:evenodd;stroke-width:2.2875;"
   id="path661"
   transform="translate(5.000114,35.0008)" /><path
   d="M 490.212 449.4075 C 492.8073 478.2337 491.8844 484.1956 484.6431 483.7501 C 475.2505 483.142 476.836 470.9945 474.0772 462.8309 C 444.6338 362.772 377.6945 207.0958 277.1708 207.0958 C 177.2186 207.0958 134.1303 335.4293 97.88217 441.3587 C 92.51939 457.9145 85.97652 483.1937 52.63535 483.78 C 28.76296 483.8428 22.28066 461.5531 23.43499 447.1248 C 41.73111 204.4262 129.3668 22.19803 259.0365 18.18481 C 369.2521 14.7728 468.5327 208.5774 490.212 449.4075 z "
   transform="translate(-9.142345,24.39393)"
   style="font-size:12;fill:url(#linearGradient642);fill-rule:evenodd;"
   id="path630" /><path
   d="M 476.0695 458.1739 C 478.6648 485.5774 477.7419 491.245 470.5006 490.8215 C 461.108 490.2434 462.6935 478.6954 459.9347 470.9348 C 430.4913 375.8142 363.552 211.9111 263.0283 211.9111 C 163.0761 211.9111 119.9878 349.821 83.73971 450.5223 C 78.37693 466.261 71.83406 490.2926 38.49289 490.8499 C 14.6205 490.9096 8.1382 469.72 9.29253 456.0038 C 27.58865 225.2835 115.2243 23.76481 244.894 19.94966 C 355.1096 16.70602 454.3902 229.2299 476.0695 458.1739 z "
   style="font-size:12;fill:url(#linearGradient659);fill-rule:evenodd;"
   id="path658"
   transform="translate(5.000114,35.0008)" /><path
   d="M 476.0695 458.1739 C 478.6648 485.5774 477.7419 491.245 470.5006 490.8215 C 461.108 490.2434 462.6935 478.6954 459.9347 470.9348 C 430.4913 375.8142 363.552 211.9111 263.0283 211.9111 C 163.0761 211.9111 119.9878 349.821 83.73971 450.5223 C 78.37693 466.261 71.83406 490.2926 38.49289 490.8499 C 14.6205 490.9096 8.1382 469.72 9.29253 456.0038 C 27.58865 225.2835 115.2243 23.76481 244.894 19.94966 C 355.1096 16.70602 454.3902 229.2299 476.0695 458.1739 z "
   style="font-size:12;fill:url(#linearGradient648);fill-rule:evenodd;"
   id="path663"
   transform="translate(5.000114,35.0008)" /></svg>
