<?xml version="1.0" encoding="UTF-8" standalone="no"?>
<!DOCTYPE svg PUBLIC "-//W3C//DTD SVG 20010904//EN"
"http://www.w3.org/TR/2001/REC-SVG-20010904/DTD/svg10.dtd">
<!-- Created with Sodipodi ("http://www.sodipodi.com/") -->
<svg
   version="1"
   x="0.00000000"
   y="0.00000000"
   width="1979pt"
   height="407pt"
   id="svg548"
   transform="matrix(1.000000,0.000000,0.000000,1.000000,0)"
   xmlns="http://www.w3.org/2000/svg"
   xmlns:sodipodi="http://sodipodi.sourceforge.net/DTD/sodipodi-0.dtd"
   xmlns:xlink="http://www.w3.org/1999/xlink">
  <defs
     id="defs550" />
  <path
     style="fill-rule:evenodd;"
     d="M 430.211 155.261 C 456.89 160.007 614.39 207.262 596.683 269.233 C 556.319 413.901 286.219 462.358 86.4997 469.237 C 245.767 436.457 442.671 375.514 492.517 282.21 C 536.59 196.075 446.036 169.504 430.211 155.261 z "
     id="path600" />
  <path
     style="fill:#759fbf;fill-rule:evenodd;"
     d="M 500.075 504.791 C 492.956 477.106 424.139 206.588 277.015 205.797 C 213.736 202.633 151.949 274.4 118.134 355.129 C 82.2457 438.128 81.2807 507.939 27.8527 508.746 C -23.4923 509.533 7.28669 386.933 31.8077 297.552 C 56.3287 198.678 135.428 1.72119 250.912 0.930179 C 366.397 0.139159 439.169 186.023 455.779 235.063 C 493.747 358.458 499.284 472.36 500.075 504.791 z "
     id="path601" />
  <path
     style="fill-rule:evenodd;"
     d="M 676.815 248.122 L 689.162 174.498 C 701.105 169.753 731.994 160.953 769.194 160.593 C 893.892 159.391 880.252 255.281 880.815 280.289 L 880.154 457.041 L 821.435 468.675 L 821.424 441.053 C 812.835 446.859 795.644 468.675 749.825 470.126 C 706.855 470.126 643.835 443.956 645.265 352.362 C 645.275 270.949 714.004 250.135 762.714 250.505 C 801.325 250.806 813.603 272.871 812.844 271.529 C 813.653 248.423 809.54 231.404 764.913 230.142 C 737.96 229.371 676.785 248.393 676.815 248.122 M 760.565 314.569 C 735.238 314.208 708.728 332.829 708.284 358.179 C 708.374 386.531 736.925 404.712 758.414 404.712 C 779.894 404.712 812.933 388.713 812.844 359.63 C 812.844 327.654 784.905 314.659 760.565 314.569 z "
     id="path551" />
  <path
     style="fill-rule:evenodd;"
     d="M 917.19 177.358 L 916.418 470.044 L 984.845 454.663 L 985.172 288.715 C 985.22 264.006 1017.13 234.767 1057.12 234.767 C 1065.63 217.665 1081.64 174.023 1085.54 164.093 C 996.196 164.884 995.022 193.569 979.465 207.852 C 979.337 180.948 979.465 164.795 979.465 164.795 L 917.19 177.358 z "
     id="path552" />
  <path
     style="fill-rule:evenodd;"
     d="M 1299.26 215.746 C 1298.6 215.41 1266.51 166.408 1196.11 166.863 C 1130.17 166.408 1056.17 195.567 1054.83 318.013 C 1055.27 425.651 1125.69 466.908 1196.1 466.918 C 1271.45 466.918 1301.5 413.534 1303.3 412.199 C 1294.32 403.672 1260.69 368.697 1260.69 368.697 C 1260.69 368.697 1239.61 405.472 1198.8 406.363 C 1157.98 407.263 1122.55 367.351 1122.11 318.013 C 1121.65 268.675 1147.22 234.589 1195.65 235.044 C 1249.92 235.044 1262.04 258.803 1262.04 258.803 L 1299.26 215.746 z "
     id="path553" />
  <path
     style="fill-rule:evenodd;"
     d="M 1323.93 468.264 L 1387.6 454.811 L 1388.54 275.401 C 1388.7 256.587 1413.17 227.417 1453.98 227.863 C 1493 227.863 1501.64 256.123 1501.53 259.703 L 1502.42 467.363 L 1565.21 454.356 L 1565.66 234.134 C 1566.1 212.937 1523.82 168.643 1455.77 169.108 C 1406.63 169.761 1390.7 188.762 1388.51 190.187 L 1388.51 69.531 L 1323.92 87.0289 L 1323.93 468.264 z "
     id="path554" />
  <path
     style="fill-rule:evenodd;"
     d="M 1620.82 114.389 L 1649.97 106.762 L 1650.43 453.911 L 1620.82 459.292 L 1620.82 114.389 z "
     id="path555" />
  <path
     style="fill-rule:evenodd;"
     d="M 1699.75 217.091 L 1725.31 205.429 L 1724.87 454.356 L 1700.2 459.737 L 1699.75 217.091 z M 1693.92 127.396 L 1714.55 110.353 L 1731.6 129.186 L 1710.96 146.674 L 1693.92 127.396 z "
     id="path556" />
  <path
     style="fill-rule:evenodd;"
     d="M 1773.3 211.71 L 1802.45 205.429 L 1802.45 257.468 C 1802.45 259.703 1818.6 199.148 1895.74 199.603 C 1970.64 199.158 1982.74 257.013 1982.3 270.02 L 1982.74 453.01 L 1957.19 458.847 L 1957.52 278.091 C 1957.83 272.809 1945.98 228.308 1893.05 228.753 C 1840.13 229.208 1803.36 268.229 1803.36 292.889 L 1803.36 452.12 L 1773.75 460.192 L 1773.3 211.71 z "
     id="path567" />
  <path
     style="fill-rule:evenodd;"
     d="M 2236.95 451.402 L 2207.8 457.682 L 2207.8 405.644 C 2207.8 403.408 2191.64 463.964 2114.51 463.509 C 2039.61 463.954 2027.51 406.099 2027.95 393.092 L 2027.51 210.101 L 2058.48 203.494 L 2058.48 384.249 C 2058.48 389.185 2064.27 434.804 2117.2 434.358 C 2170.12 433.903 2207.28 401.45 2207.67 353.219 L 2207.67 210.605 L 2236.5 202.92 L 2236.95 451.402 z "
     id="path558" />
  <path
     style="fill-rule:evenodd;"
     d="M 2294.7 203.658 L 2274.23 219.88 L 2352.28 321.495 L 2268.43 440.894 L 2290.06 456.73 L 2368.88 345.837 L 2449.63 457.501 L 2469.72 441.28 L 2383.18 321.891 L 2452.73 223.738 L 2431.47 205.963 L 2368.11 296.776 L 2294.7 203.658 z "
     id="path559" />
</svg>
