<?xml version="1.0" encoding="UTF-8" standalone="no"?>
<!DOCTYPE svg PUBLIC "-//W3C//DTD SVG 20010904//EN"
"http://www.w3.org/TR/2001/REC-SVG-20010904/DTD/svg10.dtd">
<!-- Created with Sodipodi ("http://www.sodipodi.com/") -->
<svg
   version="1"
   x="0.00000000"
   y="0.00000000"
   width="900.000000"
   height="712.500000"
   id="svg548"
   xmlns="http://www.w3.org/2000/svg"
   xmlns:sodipodi="http://sodipodi.sourceforge.net/DTD/sodipodi-0.dtd"
   xmlns:xlink="http://www.w3.org/1999/xlink">
  <defs
     id="defs550" />
  <path
     d="M 590.614 157.312 C 617.293 162.058 774.793 209.313 757.086 271.284 C 716.722 415.952 446.622 464.409 246.903 471.288 C 406.17 438.508 603.074 377.565 652.92 284.261 C 696.993 198.126 606.439 171.555 590.614 157.312 z "
     style="fill-rule:evenodd;"
     id="path553" />
  <path
     d="M 660.478 506.842 C 653.359 479.157 584.542 208.639 437.418 207.848 C 374.139 204.684 312.352 276.451 278.537 357.18 C 242.649 440.179 241.684 509.99 188.256 510.797 C 136.911 511.584 167.69 388.984 192.211 299.603 C 216.732 200.729 295.831 3.77197 411.315 2.98096 C 526.8 2.18994 599.572 188.074 616.182 237.114 C 654.15 360.509 659.687 474.411 660.478 506.842 z "
     style="fill:#759fbf;fill-rule:evenodd;"
     id="path568" />
  <path
     style="fill-rule:evenodd;"
     d="M 15.5742 603.004 L 21.6643 566.691 C 27.555 564.35 42.7899 560.01 61.1381 559.832 C 122.642 559.239 115.915 606.534 116.192 618.869 L 115.866 706.047 L 86.9042 711.785 L 86.8994 698.162 C 82.6626 701.026 74.1841 711.785 51.5846 712.501 C 30.3909 712.501 -0.691975 699.594 0.013348 654.417 C 0.0182123 614.262 33.9175 603.996 57.9422 604.179 C 76.9859 604.327 83.042 615.21 82.6674 614.548 C 83.0663 603.152 81.0379 594.757 59.027 594.135 C 45.7328 593.755 15.5596 603.137 15.5742 603.004 M 56.8818 635.776 C 44.3903 635.599 31.3151 644.783 31.0962 657.286 C 31.14 671.27 45.2221 680.237 55.8214 680.237 C 66.4158 680.237 82.7112 672.346 82.6674 658.002 C 82.6674 642.23 68.8869 635.821 56.8818 635.776 z "
     id="path578" />
  <path
     style="fill-rule:evenodd;"
     d="M 134.132 568.1 L 133.752 712.46 L 167.5 704.874 L 167.661 623.024 C 167.686 610.837 183.428 596.416 203.147 596.416 C 207.347 587.98 215.24 566.456 217.167 561.558 C 173.101 561.948 172.52 576.096 164.846 583.141 C 164.783 569.871 164.846 561.904 164.846 561.904 L 134.132 568.1 z "
     id="path579" />
  <path
     style="fill-rule:evenodd;"
     d="M 322.579 587.034 C 322.252 586.868 306.427 562.699 271.702 562.924 C 239.178 562.699 202.683 577.081 202.02 637.475 C 202.239 690.564 236.968 710.913 271.697 710.918 C 308.866 710.918 323.681 684.588 324.569 683.929 C 320.144 679.724 303.553 662.473 303.553 662.473 C 303.553 662.473 293.157 680.612 273.029 681.051 C 252.896 681.495 235.422 661.81 235.202 637.475 C 234.978 613.14 247.589 596.328 271.478 596.552 C 298.241 596.552 304.217 608.271 304.217 608.271 L 322.579 587.034 z "
     id="path580" />
  <path
     style="fill-rule:evenodd;"
     d="M 334.745 711.582 L 366.152 704.947 L 366.611 616.457 C 366.689 607.178 378.763 592.791 398.891 593.01 C 418.136 593.01 422.395 606.949 422.341 608.715 L 422.781 711.138 L 453.748 704.722 L 453.973 596.103 C 454.192 585.648 433.337 563.802 399.774 564.031 C 375.538 564.353 367.679 573.725 366.596 574.427 L 366.596 514.917 L 334.741 523.548 L 334.745 711.582 z "
     id="path581" />
  <path
     style="fill-rule:evenodd;"
     d="M 481.179 537.042 L 495.556 533.281 L 495.78 704.503 L 481.179 707.157 L 481.179 537.042 z "
     id="path582" />
  <path
     style="fill-rule:evenodd;"
     d="M 520.109 587.698 L 532.719 581.946 L 532.5 704.722 L 520.333 707.376 L 520.109 587.698 z M 517.236 543.458 L 527.412 535.052 L 535.817 544.341 L 525.641 552.966 L 517.236 543.458 z "
     id="path587" />
  <path
     style="fill-rule:evenodd;"
     d="M 556.389 585.044 L 570.766 581.946 L 570.766 607.612 C 570.766 608.715 578.732 578.848 616.779 579.072 C 653.718 578.852 659.689 607.388 659.469 613.803 L 659.689 704.059 L 647.083 706.937 L 647.249 617.784 C 647.4 615.179 641.556 593.23 615.452 593.449 C 589.348 593.674 571.21 612.92 571.21 625.083 L 571.21 703.62 L 556.609 707.601 L 556.389 585.044 z "
     id="path588" />
  <path
     style="fill-rule:evenodd;"
     d="M 785.069 703.266 L 770.692 706.364 L 770.692 680.697 C 770.692 679.594 762.726 709.462 724.679 709.237 C 687.74 709.457 681.769 680.921 681.989 674.506 L 681.769 584.25 L 697.043 580.991 L 697.043 670.144 C 697.043 672.579 699.902 695.079 726.006 694.86 C 752.11 694.635 770.438 678.628 770.629 654.84 L 770.629 584.499 L 784.849 580.708 L 785.069 703.266 z "
     id="path589" />
  <path
     style="fill-rule:evenodd;"
     d="M 813.553 581.072 L 803.454 589.073 L 841.95 639.192 L 800.596 698.083 L 811.265 705.893 L 850.14 651.198 L 889.967 706.274 L 899.875 698.273 L 857.194 639.387 L 891.494 590.976 L 881.011 582.209 L 849.76 627 L 813.553 581.072 z "
     id="path590" />
</svg>
