<svg xmlns="http://www.w3.org/2000/svg" width="1200" height="1200" version="1"><path d="M600 0c-53.416 130.962-85.671 216.74-145.143 343.81 36.464 38.651 81.22 83.449 153.905 134.285-78.145-32.156-131.403-64.213-171.238-97.714C361.41 539.2 241.989 765.194 0 1200c190.161-109.784 337.665-177.397 475.048-203.238-5.895-25.367-9.18-52.896-8.953-81.524l.19-5.905C469.305 787.48 532.72 693.638 607.81 700c75.089 6.362 133.494 110.528 130.476 232.381-.568 22.916-3.105 44.885-7.62 65.333C866.528 1024.325 1012.462 1091.73 1200 1200c-36.995-68.111-70.18-129.335-101.714-187.81-49.672-38.499-101.365-88.613-207.048-142.857 72.64 18.875 124.793 40.612 165.333 64.953C735.952 337.348 709.948 258.016 600 0z" fill="#1793d1" fill-rule="evenodd"/></svg>