<?xml version="1.0" standalone="no"?>
<!DOCTYPE svg PUBLIC "-//W3C//DTD SVG 20010904//EN"
 "http://www.w3.org/TR/2001/REC-SVG-20010904/DTD/svg10.dtd">
<svg version="1.0" xmlns="http://www.w3.org/2000/svg"
 width="6000.000000pt" height="1992.000000pt" viewBox="0 0 6000.000000 1992.000000"
 preserveAspectRatio="xMidYMid meet">
<metadata>
Created by potrace 1.13, written by Peter Selinger 2001-2015
</metadata>
<g transform="translate(0.000000,1992.000000) scale(0.100000,-0.100000)"
fill="#000000" stroke="none">
<path d="M31983 16277 c-221 -56 -404 -105 -407 -108 -7 -7 12 -8486 20 -9375
l6 -601 422 72 421 71 4 34 c5 49 -28 8963 -35 9538 -5 342 -9 472 -18 471 -6
0 -192 -47 -413 -102z"/>
<path d="M33984 16014 c-159 -130 -289 -240 -289 -245 0 -8 477 -557 485 -558
11 -2 591 491 588 500 -5 14 -479 539 -487 539 -4 0 -138 -106 -297 -236z"/>
<path d="M39100 13599 c-894 -89 -1589 -493 -2035 -1184 -65 -101 -146 -255
-193 -366 l-31 -74 -2 395 c-1 217 -4 555 -8 750 l-6 356 -419 -86 -419 -85 7
-980 c3 -539 11 -2154 17 -3590 6 -1435 13 -2612 15 -2614 3 -4 742 185 821
210 l32 10 -6 2342 c-6 2195 -5 2347 11 2427 87 426 474 901 997 1223 492 303
1057 452 1644 434 347 -11 604 -71 868 -203 431 -216 754 -601 904 -1080 l28
-89 5 -2651 5 -2650 368 80 367 80 0 160 c-3 1421 -32 5256 -40 5311 -51 348
-225 740 -461 1036 -80 101 -255 271 -359 351 -329 250 -719 400 -1225 474
-131 19 -735 28 -885 13z"/>
<path d="M34231 13339 c-195 -87 -358 -162 -362 -166 -4 -5 -1 -1302 6 -2883
8 -1581 14 -3157 15 -3502 0 -617 0 -628 20 -628 21 0 691 138 697 143 6 7
-10 7197 -16 7196 -3 0 -165 -72 -360 -160z"/>
<path d="M43795 13358 c-242 -49 -442 -91 -444 -94 -6 -6 18 -5233 25 -5344
14 -245 84 -489 215 -755 262 -533 697 -907 1284 -1104 352 -117 654 -157
1140 -148 313 6 421 16 655 63 735 147 1333 558 1707 1173 55 90 109 195 186
361 15 33 16 -17 16 -712 l1 -748 23 0 c12 1 202 38 422 83 l399 82 -3 910
c-9 2700 -28 6265 -33 6271 -4 3 -190 -41 -415 -98 l-408 -104 0 -2185 c0
-2045 -1 -2191 -18 -2288 -51 -302 -119 -513 -233 -729 -102 -193 -212 -344
-372 -505 -386 -392 -897 -627 -1547 -714 -185 -24 -639 -24 -780 0 -212 37
-363 86 -536 173 -402 204 -693 604 -799 1099 l-22 100 -8 2648 c-5 1457 -10
2650 -12 2651 -1 2 -201 -37 -443 -86z"/>
<path d="M50784 13134 c-159 -124 -289 -229 -289 -234 0 -5 506 -671 1125
-1481 619 -809 1126 -1475 1128 -1479 2 -4 -538 -774 -1199 -1711 -661 -937
-1202 -1709 -1203 -1715 -1 -10 580 -449 609 -460 7 -3 475 643 1145 1581
1080 1512 1134 1586 1150 1568 9 -10 531 -733 1160 -1608 628 -874 1150 -1598
1159 -1607 15 -17 34 -4 304 213 205 164 286 234 279 242 -5 7 -571 790 -1256
1741 l-1247 1728 24 37 c14 20 464 653 1001 1406 536 754 974 1373 973 1376
-1 4 -139 122 -306 264 -250 211 -307 254 -315 242 -6 -8 -416 -593 -911
-1300 -495 -708 -902 -1286 -905 -1286 -3 -1 -482 609 -1065 1354 -583 744
-1063 1354 -1066 1354 -3 1 -136 -101 -295 -225z"/>
</g>
</svg>
