<?xml version="1.0" encoding="UTF-8" standalone="no"?>
<!-- Created with Inkscape (http://www.inkscape.org/) -->

<svg
   xmlns:svg="http://www.w3.org/2000/svg"
   xmlns="http://www.w3.org/2000/svg"
   xmlns:xlink="http://www.w3.org/1999/xlink"
   version="1.1"
   width="250"
   height="264.74301"
   id="svg2895">
  <defs
     id="defs2897">
    <linearGradient
       id="linearGradient36806">
      <stop
         id="stop36808"
         style="stop-color:#e9ebe8;stop-opacity:1"
         offset="0" />
      <stop
         id="stop36810"
         style="stop-color:#ffffff;stop-opacity:1"
         offset="1" />
    </linearGradient>
    <linearGradient
       id="linearGradient33893">
      <stop
         id="stop33895"
         style="stop-color:#d5d9d3;stop-opacity:1"
         offset="0" />
      <stop
         id="stop33897"
         style="stop-color:#eef0ed;stop-opacity:1"
         offset="1" />
    </linearGradient>
    <linearGradient
       id="linearGradient30967">
      <stop
         id="stop30969"
         style="stop-color:#f8f8f7;stop-opacity:1"
         offset="0" />
      <stop
         id="stop30971"
         style="stop-color:#e6e6e3;stop-opacity:1"
         offset="1" />
    </linearGradient>
    <linearGradient
       id="linearGradient25143">
      <stop
         id="stop25145"
         style="stop-color:#d3d7cf;stop-opacity:1"
         offset="0" />
      <stop
         id="stop25147"
         style="stop-color:#9fa896;stop-opacity:1"
         offset="1" />
    </linearGradient>
    <linearGradient
       id="linearGradient23683">
      <stop
         id="stop23685"
         style="stop-color:#d3d7cf;stop-opacity:1"
         offset="0" />
      <stop
         id="stop23687"
         style="stop-color:#d3d7cf;stop-opacity:0"
         offset="1" />
    </linearGradient>
    <linearGradient
       id="linearGradient14834">
      <stop
         id="stop14836"
         style="stop-color:#eeeeec;stop-opacity:1"
         offset="0" />
      <stop
         id="stop14838"
         style="stop-color:#d3d7cf;stop-opacity:1"
         offset="1" />
    </linearGradient>
    <linearGradient
       id="linearGradient36029">
      <stop
         id="stop36031"
         style="stop-color:#000000;stop-opacity:1"
         offset="0" />
      <stop
         id="stop36037"
         style="stop-color:#000000;stop-opacity:0.49803922"
         offset="0.7639485" />
      <stop
         id="stop36033"
         style="stop-color:#000000;stop-opacity:0"
         offset="1" />
    </linearGradient>
    <linearGradient
       id="linearGradient19847">
      <stop
         id="stop19849"
         style="stop-color:#d8d8d3;stop-opacity:1"
         offset="0" />
      <stop
         id="stop19851"
         style="stop-color:#ffffff;stop-opacity:0"
         offset="1" />
    </linearGradient>
    <linearGradient
       id="linearGradient18995">
      <stop
         id="stop18997"
         style="stop-color:#729fcf;stop-opacity:1"
         offset="0" />
      <stop
         id="stop18999"
         style="stop-color:#345180;stop-opacity:1"
         offset="1" />
    </linearGradient>
    <linearGradient
       id="linearGradient18261">
      <stop
         id="stop18263"
         style="stop-color:#cecece;stop-opacity:1"
         offset="0" />
      <stop
         id="stop18265"
         style="stop-color:#ffffff;stop-opacity:1"
         offset="1" />
    </linearGradient>
    <linearGradient
       id="linearGradient17527">
      <stop
         id="stop17529"
         style="stop-color:#eeeeec;stop-opacity:1"
         offset="0" />
      <stop
         id="stop17531"
         style="stop-color:#ffffff;stop-opacity:1"
         offset="1" />
    </linearGradient>
    <linearGradient
       id="linearGradient13880">
      <stop
         id="stop13882"
         style="stop-color:#a8b0a1;stop-opacity:1"
         offset="0" />
      <stop
         id="stop13884"
         style="stop-color:#edeeeb;stop-opacity:1"
         offset="1" />
    </linearGradient>
    <linearGradient
       id="linearGradient13872">
      <stop
         id="stop13874"
         style="stop-color:#a8b0a1;stop-opacity:1"
         offset="0" />
      <stop
         id="stop13876"
         style="stop-color:#a8b0a1;stop-opacity:1"
         offset="1" />
    </linearGradient>
    <linearGradient
       x1="14.595432"
       y1="25.7218"
       x2="32.016243"
       y2="43.399467"
       id="linearGradient19001"
       xlink:href="#linearGradient18995"
       gradientUnits="userSpaceOnUse"
       gradientTransform="matrix(0.99225,0,0,1,0.185736,0)" />
    <linearGradient
       x1="43.25"
       y1="20"
       x2="40.875"
       y2="28.625"
       id="linearGradient11647"
       xlink:href="#linearGradient5721"
       gradientUnits="userSpaceOnUse" />
    <radialGradient
       cx="16.380457"
       cy="17.796696"
       r="17.033163"
       fx="16.380457"
       fy="17.796696"
       id="radialGradient8714"
       xlink:href="#linearGradient8716"
       gradientUnits="userSpaceOnUse"
       gradientTransform="matrix(-0.436773,0.522591,-0.476132,-0.397944,32.37619,9.556039)" />
    <linearGradient
       x1="21"
       y1="46.714287"
       x2="21"
       y2="-3.9460521"
       id="linearGradient7976"
       xlink:href="#linearGradient2882"
       gradientUnits="userSpaceOnUse" />
    <radialGradient
       cx="18.384777"
       cy="40.575378"
       r="21.213203"
       fx="18.384777"
       fy="40.575378"
       id="radialGradient5727"
       xlink:href="#linearGradient5721"
       gradientUnits="userSpaceOnUse"
       gradientTransform="matrix(0.943831,0,0,0.166667,1.032663,33.81282)" />
    <linearGradient
       id="linearGradient5721">
      <stop
         id="stop5723"
         style="stop-color:#9c9c9c;stop-opacity:1"
         offset="0" />
      <stop
         id="stop5725"
         style="stop-color:#000000;stop-opacity:0"
         offset="1" />
    </linearGradient>
    <linearGradient
       id="linearGradient2882">
      <stop
         id="stop2884"
         style="stop-color:#ffffff;stop-opacity:1"
         offset="0" />
      <stop
         id="stop2886"
         style="stop-color:#dadada;stop-opacity:1"
         offset="1" />
    </linearGradient>
    <linearGradient
       id="linearGradient639">
      <stop
         id="stop640"
         style="stop-color:#000000;stop-opacity:1"
         offset="0" />
      <stop
         id="stop641"
         style="stop-color:#8e8e8e;stop-opacity:1"
         offset="1" />
    </linearGradient>
    <linearGradient
       id="linearGradient8716">
      <stop
         id="stop8718"
         style="stop-color:#e1e1e1;stop-opacity:1"
         offset="0" />
      <stop
         id="stop8720"
         style="stop-color:#c1c1c1;stop-opacity:1"
         offset="1" />
    </linearGradient>
    <radialGradient
       cx="18.384777"
       cy="40.575378"
       r="21.213203"
       fx="18.384777"
       fy="40.575378"
       id="radialGradient19071"
       xlink:href="#linearGradient5721"
       gradientUnits="userSpaceOnUse"
       gradientTransform="matrix(0.943831,0,0,0.166667,1.032663,33.81282)" />
    <linearGradient
       x1="21"
       y1="46.714287"
       x2="21"
       y2="-3.9460521"
       id="linearGradient19073"
       xlink:href="#linearGradient2882"
       gradientUnits="userSpaceOnUse" />
    <radialGradient
       cx="16.380457"
       cy="17.796696"
       r="17.033163"
       fx="16.380457"
       fy="17.796696"
       id="radialGradient19075"
       xlink:href="#linearGradient8716"
       gradientUnits="userSpaceOnUse"
       gradientTransform="matrix(-0.436773,0.522591,-0.476132,-0.397944,32.37619,9.556039)" />
    <linearGradient
       x1="43.25"
       y1="20"
       x2="40.875"
       y2="28.625"
       id="linearGradient19077"
       xlink:href="#linearGradient5721"
       gradientUnits="userSpaceOnUse" />
    <linearGradient
       x1="43.25"
       y1="20"
       x2="40.875"
       y2="28.625"
       id="linearGradient19080"
       xlink:href="#linearGradient5721"
       gradientUnits="userSpaceOnUse"
       gradientTransform="matrix(0.493381,0,0,0.493381,-42.24651,27.80721)" />
    <linearGradient
       x1="21"
       y1="46.714287"
       x2="21"
       y2="-3.9460521"
       id="linearGradient19084"
       xlink:href="#linearGradient2882"
       gradientUnits="userSpaceOnUse"
       gradientTransform="matrix(0.493381,0,0,0.493381,-42.2465,27.80722)" />
    <radialGradient
       cx="16.380457"
       cy="17.796696"
       r="17.033163"
       fx="16.380457"
       fy="17.796696"
       id="radialGradient19089"
       xlink:href="#linearGradient8716"
       gradientUnits="userSpaceOnUse"
       gradientTransform="matrix(-0.436773,0.522591,-0.476132,-0.397944,32.37619,9.556039)" />
    <linearGradient
       x1="21"
       y1="46.714287"
       x2="21"
       y2="-3.9460521"
       id="linearGradient19098"
       xlink:href="#linearGradient2882"
       gradientUnits="userSpaceOnUse"
       gradientTransform="matrix(0.493381,0,0,0.493381,-42.2465,27.80722)" />
    <radialGradient
       cx="16.380457"
       cy="17.796696"
       r="17.033163"
       fx="16.380457"
       fy="17.796696"
       id="radialGradient19100"
       xlink:href="#linearGradient8716"
       gradientUnits="userSpaceOnUse"
       gradientTransform="matrix(-0.436773,0.522591,-0.476132,-0.397944,32.37619,9.556039)" />
    <linearGradient
       x1="43.25"
       y1="20"
       x2="40.875"
       y2="28.625"
       id="linearGradient19102"
       xlink:href="#linearGradient5721"
       gradientUnits="userSpaceOnUse"
       gradientTransform="matrix(0.493381,0,0,0.493381,-42.24651,27.80721)" />
    <linearGradient
       x1="43.25"
       y1="20"
       x2="40.875"
       y2="28.625"
       id="linearGradient19105"
       xlink:href="#linearGradient5721"
       gradientUnits="userSpaceOnUse"
       gradientTransform="matrix(0.412385,0,0,0.412385,-45.67954,21.62447)" />
    <linearGradient
       x1="15.588248"
       y1="24.995495"
       x2="30.506712"
       y2="27.646311"
       id="linearGradient19853"
       xlink:href="#linearGradient19847"
       gradientUnits="userSpaceOnUse"
       gradientTransform="matrix(0.341723,0,0,2.393257,9.840567,-34.82516)" />
    <linearGradient
       x1="14.595432"
       y1="25.7218"
       x2="32.016243"
       y2="43.399467"
       id="linearGradient19857"
       xlink:href="#linearGradient19847"
       gradientUnits="userSpaceOnUse"
       gradientTransform="matrix(0.99225,0,0,1,0.185736,0)" />
    <linearGradient
       x1="14.595432"
       y1="25.7218"
       x2="32.016243"
       y2="43.399467"
       id="linearGradient19861"
       xlink:href="#linearGradient18995"
       gradientUnits="userSpaceOnUse"
       gradientTransform="matrix(0.99225,0,0,1,0.185736,0)" />
    <linearGradient
       x1="14.595432"
       y1="25.7218"
       x2="32.016243"
       y2="43.399467"
       id="linearGradient19869"
       xlink:href="#linearGradient18995"
       gradientUnits="userSpaceOnUse"
       gradientTransform="matrix(0.99225,0,0,1,0.185736,0)" />
    <linearGradient
       x1="31.78125"
       y1="43.1875"
       x2="16.90625"
       y2="32.0625"
       id="linearGradient39022"
       xlink:href="#linearGradient23683"
       gradientUnits="userSpaceOnUse" />
    <linearGradient
       x1="13.401031"
       y1="13.558653"
       x2="5.976409"
       y2="7.3714681"
       id="linearGradient39024"
       xlink:href="#linearGradient25143"
       gradientUnits="userSpaceOnUse" />
    <linearGradient
       x1="31.484558"
       y1="3.8232443"
       x2="13.011393"
       y2="13.457574"
       id="linearGradient39026"
       xlink:href="#linearGradient14834"
       gradientUnits="userSpaceOnUse" />
    <linearGradient
       x1="13.633828"
       y1="8.5078268"
       x2="31.806158"
       y2="8.5078268"
       id="linearGradient39028"
       xlink:href="#linearGradient36806"
       gradientUnits="userSpaceOnUse" />
    <linearGradient
       x1="38.422016"
       y1="13.591799"
       x2="27.733131"
       y2="21.635138"
       id="linearGradient39030"
       xlink:href="#linearGradient30967"
       gradientUnits="userSpaceOnUse" />
    <linearGradient
       x1="34.562054"
       y1="23.513792"
       x2="13.48508"
       y2="13.640475"
       id="linearGradient39032"
       xlink:href="#linearGradient14834"
       gradientUnits="userSpaceOnUse"
       gradientTransform="matrix(1.014523,0,0,1.009511,-0.142602,-0.293856)" />
    <linearGradient
       x1="12.47126"
       y1="18.443405"
       x2="33.490791"
       y2="18.443405"
       id="linearGradient39034"
       xlink:href="#linearGradient36806"
       gradientUnits="userSpaceOnUse" />
    <linearGradient
       x1="11.386287"
       y1="23.346619"
       x2="38.100643"
       y2="26.44021"
       id="linearGradient39036"
       xlink:href="#linearGradient33893"
       gradientUnits="userSpaceOnUse" />
    <linearGradient
       x1="9.2837515"
       y1="24.937609"
       x2="35.983704"
       y2="24.937609"
       id="linearGradient39038"
       xlink:href="#linearGradient36806"
       gradientUnits="userSpaceOnUse" />
    <linearGradient
       x1="265.71939"
       y1="424.07321"
       x2="265.71939"
       y2="70.893417"
       id="linearGradient9132"
       xlink:href="#linearGradient8340"
       gradientUnits="userSpaceOnUse"
       gradientTransform="matrix(0.996493,0,0,0.979476,-7.530071,28.93933)" />
    <linearGradient
       x1="265.71939"
       y1="424.07321"
       x2="265.71939"
       y2="70.893417"
       id="linearGradient9128"
       xlink:href="#linearGradient8340"
       gradientUnits="userSpaceOnUse"
       gradientTransform="matrix(1.002771,0,0,0.997237,-9.142415,24.39389)" />
    <linearGradient
       x1="265.71939"
       y1="424.07321"
       x2="265.71939"
       y2="70.893417"
       id="linearGradient9118"
       xlink:href="#linearGradient8340"
       gradientUnits="userSpaceOnUse"
       gradientTransform="matrix(1.002771,0,0,0.997237,-9.142415,24.39389)" />
    <linearGradient
       x1="265.71939"
       y1="424.07321"
       x2="265.71939"
       y2="70.893417"
       id="linearGradient8348"
       xlink:href="#linearGradient8340"
       gradientUnits="userSpaceOnUse"
       gradientTransform="matrix(1.002771,0,0,0.997237,-9.142415,24.39389)" />
    <linearGradient
       x1="0.91787434"
       y1="0.10156304"
       x2="0.78743958"
       y2="0.24218753"
       id="linearGradient662"
       xlink:href="#linearGradient655" />
    <linearGradient
       x1="0.63565892"
       y1="0.070311584"
       x2="0.62790698"
       y2="0.34375"
       id="linearGradient659"
       xlink:href="#linearGradient652" />
    <linearGradient
       x1="311.32385"
       y1="56.541351"
       x2="347.72528"
       y2="225.29604"
       id="linearGradient648"
       xlink:href="#linearGradient652"
       gradientUnits="userSpaceOnUse"
       gradientTransform="matrix(0.997115,0,0,0.325012,5.000114,48.46051)" />
    <linearGradient
       x1="0.68115938"
       y1="0.031252056"
       x2="0.0096617993"
       y2="1.109375"
       id="linearGradient646"
       xlink:href="#linearGradient639" />
    <linearGradient
       x1="0.51162791"
       y1="0.2421875"
       x2="0.50387597"
       y2="0.84375"
       id="linearGradient642"
       xlink:href="#linearGradient643" />
    <linearGradient
       id="linearGradient39231">
      <stop
         id="stop39233"
         style="stop-color:#000000;stop-opacity:0.66670001"
         offset="0" />
      <stop
         id="stop39235"
         style="stop-color:#ffffff;stop-opacity:0.66670001"
         offset="1" />
    </linearGradient>
    <linearGradient
       id="linearGradient643">
      <stop
         id="stop644"
         style="stop-color:#001e87;stop-opacity:1"
         offset="0" />
      <stop
         id="stop645"
         style="stop-color:#85aee8;stop-opacity:1"
         offset="1" />
    </linearGradient>
    <linearGradient
       id="linearGradient649">
      <stop
         id="stop650"
         style="stop-color:#ffffff;stop-opacity:1"
         offset="0" />
      <stop
         id="stop651"
         style="stop-color:#ffffff;stop-opacity:1"
         offset="1" />
    </linearGradient>
    <linearGradient
       id="linearGradient652">
      <stop
         id="stop653"
         style="stop-color:#ffffff;stop-opacity:0.74119997"
         offset="0" />
      <stop
         id="stop654"
         style="stop-color:#ffffff;stop-opacity:0"
         offset="1" />
    </linearGradient>
    <linearGradient
       id="linearGradient655">
      <stop
         id="stop656"
         style="stop-color:#ffffff;stop-opacity:0.91759998"
         offset="0" />
      <stop
         id="stop657"
         style="stop-color:#ffffff;stop-opacity:0"
         offset="1" />
    </linearGradient>
    <linearGradient
       id="linearGradient2999">
      <stop
         id="stop3001"
         style="stop-color:#001e87;stop-opacity:0"
         offset="0" />
      <stop
         id="stop3007"
         style="stop-color:#d2dce8;stop-opacity:1"
         offset="0.01" />
      <stop
         id="stop3003"
         style="stop-color:#d2dce8;stop-opacity:1"
         offset="1" />
    </linearGradient>
    <linearGradient
       id="linearGradient8340">
      <stop
         id="stop8342"
         style="stop-color:#b7b7b7;stop-opacity:1"
         offset="0" />
      <stop
         id="stop8344"
         style="stop-color:#ffffff;stop-opacity:1"
         offset="1" />
    </linearGradient>
    <linearGradient
       x1="11.386287"
       y1="23.346619"
       x2="38.100643"
       y2="26.44021"
       id="linearGradient45113"
       xlink:href="#linearGradient33893"
       gradientUnits="userSpaceOnUse"
       gradientTransform="matrix(5.7595392,0,0,5.7595392,-5.2625201,-234.81394)" />
    <linearGradient
       x1="9.2837515"
       y1="24.937609"
       x2="35.983704"
       y2="24.937609"
       id="linearGradient45115"
       xlink:href="#linearGradient36806"
       gradientUnits="userSpaceOnUse"
       gradientTransform="matrix(5.7595392,0,0,5.7595392,-5.2625201,-234.81394)" />
    <linearGradient
       x1="34.562054"
       y1="23.513792"
       x2="13.48508"
       y2="13.640475"
       id="linearGradient45119"
       xlink:href="#linearGradient14834"
       gradientUnits="userSpaceOnUse"
       gradientTransform="matrix(5.843185,0,0,5.8143183,-6.083842,-236.50642)" />
    <linearGradient
       x1="12.47126"
       y1="18.443405"
       x2="33.490791"
       y2="18.443405"
       id="linearGradient45121"
       xlink:href="#linearGradient36806"
       gradientUnits="userSpaceOnUse"
       gradientTransform="matrix(5.7595392,0,0,5.7595392,-5.2625201,-234.81394)" />
    <linearGradient
       x1="38.422016"
       y1="13.591799"
       x2="27.733131"
       y2="21.635138"
       id="linearGradient45124"
       xlink:href="#linearGradient30967"
       gradientUnits="userSpaceOnUse"
       gradientTransform="matrix(5.7595392,0,0,5.7595392,-5.2625201,-234.81394)" />
    <linearGradient
       x1="31.484558"
       y1="3.8232443"
       x2="13.011393"
       y2="13.457574"
       id="linearGradient45127"
       xlink:href="#linearGradient14834"
       gradientUnits="userSpaceOnUse"
       gradientTransform="matrix(5.7595392,0,0,5.2469517,-5.2625201,-227.62179)" />
    <linearGradient
       x1="13.633828"
       y1="8.5078268"
       x2="31.806158"
       y2="8.5078268"
       id="linearGradient45129"
       xlink:href="#linearGradient36806"
       gradientUnits="userSpaceOnUse"
       gradientTransform="matrix(5.7595392,0,0,5.2469517,-5.2625201,-227.62179)" />
    <linearGradient
       x1="13.401031"
       y1="13.558653"
       x2="5.976409"
       y2="7.3714681"
       id="linearGradient45132"
       xlink:href="#linearGradient25143"
       gradientUnits="userSpaceOnUse"
       gradientTransform="matrix(5.7595392,0,0,5.7595392,-5.2625201,-234.81394)" />
    <linearGradient
       x1="31.78125"
       y1="43.1875"
       x2="16.90625"
       y2="32.0625"
       id="linearGradient48795"
       xlink:href="#linearGradient23683"
       gradientUnits="userSpaceOnUse" />
    <radialGradient
       cx="24.262602"
       cy="44.287689"
       r="15.77732"
       fx="24.262602"
       fy="44.287689"
       id="radialGradient2178"
       xlink:href="#linearGradient36029"
       gradientUnits="userSpaceOnUse"
       gradientTransform="matrix(1,0,0,0.184874,0,36.10005)" />
  </defs>
  <g
     transform="translate(-2.296875,217.7153)"
     id="layer1">
    <path
       d="m 40.039922,44.287689 a 15.77732,2.9168155 0 1 1 -31.5546401,0 15.77732,2.9168155 0 1 1 31.5546401,0 z"
       transform="matrix(5.7595392,0,0,5.7595392,-12.444533,-224.84847)"
       id="path1443"
       style="opacity:0.50349851;fill:url(#radialGradient2178);fill-opacity:1;fill-rule:evenodd;stroke:none" />
    <path
       d="M 200.54192,-98.161645 189.46432,33.0467 63.156382,33.0467 52.078779,-98.161645"
       id="rect1421"
       style="fill:#f0f1ef;fill-opacity:1;fill-rule:evenodd;stroke:#4f4f4f;stroke-width:5.75953913;stroke-linecap:round;stroke-linejoin:round;stroke-miterlimit:4;stroke-opacity:1;stroke-dasharray:none;stroke-dashoffset:0" />
    <path
       d="m 11.78125,25.375 1.625,19.875 18.875,0 1.625,-19.875 -22.125,0 z"
       transform="matrix(5.7595392,0,0,5.7595392,-5.2625203,-236.34118)"
       id="path4393"
       style="fill:url(#linearGradient48795);fill-opacity:1;fill-rule:evenodd;stroke:none" />
    <path
       d="m 62.953687,-171.65896 123.705503,0 16.29044,73.306951 -152.468311,0 12.472368,-73.306951 z"
       id="rect38282"
       style="fill:#4f4f4f;fill-opacity:1;fill-rule:evenodd;stroke:none" />
    <path
       d="m 29.498177,-193.49181 -17.360957,43.34564 47.925316,48.52001 12.033389,-55.05376 -42.597748,-36.81189 z"
       id="path14842"
       style="fill:url(#linearGradient45132);fill-opacity:1;fill-rule:evenodd;stroke:#e9ebe8;stroke-width:5.75953913;stroke-linecap:round;stroke-linejoin:miter;stroke-miterlimit:4;stroke-opacity:1;stroke-dasharray:none;stroke-dashoffset:0" />
    <path
       d="m 72.556877,-156.62488 107.506963,0 -2.67266,-52.35354 -102.161651,0 -2.672652,52.35354 z"
       id="path2163"
       style="fill:url(#linearGradient45127);fill-opacity:1;fill-rule:evenodd;stroke:url(#linearGradient45129);stroke-width:5.4972744;stroke-linecap:round;stroke-linejoin:miter;stroke-miterlimit:4;stroke-opacity:1;stroke-dasharray:none;stroke-dashoffset:0" />
    <path
       d="m 225.32836,-193.74634 17.38405,43.34563 -49.69943,49.41089 -12.28332,-56.51611 44.5987,-36.24041 z"
       id="path17751"
       style="fill:url(#linearGradient45124);fill-opacity:1;fill-rule:evenodd;stroke:#ffffff;stroke-width:5.75953913;stroke-linecap:round;stroke-linejoin:miter;stroke-miterlimit:4;stroke-opacity:1;stroke-dashoffset:0" />
    <path
       d="m 71.945416,-157.10628 108.507274,0 13.61864,57.03568 -134.344591,0 12.218677,-57.03568 z"
       id="rect1424"
       style="fill:url(#linearGradient45119);fill-opacity:1;fill-rule:evenodd;stroke:url(#linearGradient45121);stroke-width:5.75953913;stroke-linecap:round;stroke-linejoin:miter;stroke-miterlimit:4;stroke-opacity:1;stroke-dasharray:none;stroke-dashoffset:0" />
    <path
       d="m 121.1936,-89.787379 c -12.17449,0.376795 -22.307645,9.067357 -29.645955,22.940325 -7.338321,13.872962 -12.0033,33.023586 -13.646554,54.821478 -0.122737,1.534133 0.07346,3.4325697 1.058788,5.0586316 0.985325,1.6260677 2.876066,2.8300994 5.411565,2.8234241 2.795075,-0.049153 4.868821,-0.9605011 6.235058,-2.3528525 1.366238,-1.392357 2.088875,-3.1318991 2.588135,-4.5880662 l 0.11765,-0.235277 0,-0.117645 c 1.74115,0.780303 8.546563,0.483197 23.881473,-1.646997 1.17738,-0.209918 2.2672,-0.367856 3.41162,-0.588216 1.14444,-0.220355 2.30036,-0.475318 3.41164,-0.705855 1.1113,-0.230525 2.21602,-0.465434 3.294,-0.70586 1.07797,-0.240421 2.13187,-0.455799 3.17635,-0.705849 1.04448,-0.250062 2.04792,-0.564078 3.0587,-0.823505 1.0108,-0.259409 2.08178,-0.554989 3.05872,-0.823493 0.97695,-0.268498 1.88052,-0.546189 2.82342,-0.823505 0.94291,-0.27731 1.91473,-0.53763 2.82343,-0.823498 0.9087,-0.285852 1.71383,-0.529366 2.58813,-0.823494 0.87432,-0.294134 1.74842,-0.639009 2.58814,-0.941149 0.83975,-0.302122 1.66551,-0.631285 2.4705,-0.941131 0.80499,-0.309864 1.58279,-0.623839 2.35285,-0.941144 0.22571,-0.09301 0.48316,-0.141656 0.70586,-0.235283 2.34695,5.698759 4.42329,10.876274 5.41157,14.2347649 0.1595,0.4719655 0.21497,1.4099813 0.47057,2.3528409 0.12779,0.4714356 0.39919,0.938995 0.82349,1.4117149 0.4243,0.4727315 1.0646,0.7781829 1.76465,0.823499 0.50202,0.030889 1.24575,-0.0087 1.76462,-0.4705659 0.51889,-0.461869 0.60942,-1.0469806 0.70588,-1.6469921 0.19289,-1.2000576 0.116,-2.8165241 -0.11763,-5.4115647 -0.46775,-5.196049 -1.15131,-10.271125 -1.99992,-15.175914 -0.042,-0.176409 -0.0755,-0.294877 -0.11763,-0.470566 9.29338,-5.348711 14.537,-11.478733 15.05828,-17.764043 0.40401,-12.815528 -27.46561,-20.23226 -27.17546,-18.35226 0.32808,2.126048 19.75013,5.400162 12.23483,19.646324 -0.86531,1.535171 -1.88575,2.95643 -3.05871,4.352784 -0.18496,0.220192 0.42674,0.489031 0.23483,0.705855 -3.89662,-15.353244 -9.60915,-27.022388 -14.94015,-35.292798 -6.80442,-10.556198 -14.5616,-16.019864 -22.82268,-15.764118 z m 0.11764,2.588141 c 7.0576,-0.218494 13.92535,4.434741 20.46982,14.587693 6.53142,10.132693 12.61955,25.628762 17.52875,46.233559 l -0.11763,0 c 0.83706,4.837979 1.53878,9.817746 1.99994,14.940626 0.20684,2.2973876 0.29706,3.5240888 0.23529,4.2351327 -0.1305,-0.5441095 -0.27014,-1.411617 -0.58823,-2.3528524 -1.31432,-4.4665633 -3.08887,-9.5122823 -7.1762,-18.8228243 0.001,-0.03919 0.001,-0.07846 0,-0.11765 -4.18077,-8.28114 -8.41861,-15.046192 -13.17599,-19.881613 -4.75735,-4.835415 -10.07616,-7.764417 -15.99938,-7.764417 -9.47877,0 -16.3314,6.187593 -21.41097,14.470053 -5.079577,8.282454 -8.646794,18.780112 -11.881915,28.234235 l -0.352928,1.058781 0,0.235289 -0.11765,0.235295 c -0.457083,1.333113 -1.080006,2.5917685 -1.999926,3.5292717 -0.919931,0.9375148 -2.105354,1.6074816 -4.352777,1.6470036 -1.72698,0.00454 -2.567234,-0.6417681 -3.176358,-1.6470036 -0.609122,-1.0052239 -0.789229,-2.3695547 -0.705854,-3.4116287 1.623557,-21.536599 6.318762,-40.354465 13.41126,-53.762701 7.092508,-13.408241 16.432358,-21.30647 27.410748,-21.646249 z m 3.17635,33.763439 c 5.09965,0 9.67115,2.304373 14.11712,6.823273 3.60061,3.659693 7.47256,9.532367 10.85166,15.64648 -1.26244,0.827254 -3.03135,1.592133 -4.38131,2.352858 -3.61208,2.035416 -7.55598,3.817994 -11.52899,5.411566 -3.97301,1.59356 -8.05215,3.033013 -11.99955,4.235127 -3.94739,1.202114 -7.75847,2.19765 -11.29369,3.058707 -3.53523,0.861057 -6.79255,1.547179 -9.52906,2.117564 -2.736523,0.570401 -4.919065,1.081589 -6.470345,1.411714 -0.448789,0.09552 -0.377123,0.157173 -0.70586,0.235289 l 0,-0.117644 0.11765,-0.235283 c 3.23708,-9.459859 6.800355,-19.861639 11.646625,-27.763669 4.84627,-7.902036 10.8078,-13.175982 19.17576,-13.175982 z"
       id="path632"
       style="font-size:12px;fill:#cc0000;fill-opacity:1;fill-rule:evenodd;stroke:none" />
    <path
       d="m 185.34223,-168.39924 42.29661,-34.73723 21.77827,54.17565 -48.05617,47.78618 28.97769,24.928001 -208.063354,0 30.147589,-24.928001 -47.2462204,-47.78618 21.9582424,-54.17565 40.13679,34.73723 2.519798,-46.43629 113.030955,0 2.5198,46.43629 z"
       id="path5121"
       style="fill:none;stroke:#4f4f4f;stroke-width:5.75953913;stroke-linecap:round;stroke-linejoin:round;stroke-miterlimit:4;stroke-opacity:1;stroke-dasharray:none;stroke-dashoffset:0" />
    <path
       d="m 57.10249,-73.460307 138.46164,0.03089 -4.03797,50.905043 C 146.10517,-28.841847 103.7931,-50.834446 58.36239,-57.081617 l -1.2599,-16.37869 z"
       id="rect47340"
       style="opacity:0.34265131;fill:#87927c;fill-opacity:1;fill-rule:evenodd;stroke:none" />
    <path
       d="m 72.908521,-157.30393 c -9.103257,18.3141 2.595921,40.65658 20.246277,48.53673 14.436812,7.70638 36.190162,5.83663 44.410212,-9.89615 8.3254,-15.39853 -2.68255,-34.77559 -18.33662,-39.96746 -12.00324,-5.30536 -29.700759,-0.49422 -32.125151,13.90778 -3.408743,16.5544 18.668811,31.97598 32.370381,21.23878 8.17356,-6.75952 2.64973,-21.28809 -7.76793,-21.74352 -13.009189,-3.39709 -7.76942,17.6184 -1.00216,11.02957 -2.81429,-2.94459 -3.75659,-7.92213 -0.13991,-3.88879 12.5586,1.25028 -0.40324,17.69662 -8.56882,9.58181 -9.123365,-4.00748 -10.320128,-18.34949 -1.19672,-23.07094 15.76732,-8.46535 37.26845,9.29013 31.05728,26.4564 -4.90748,14.58278 -23.86803,16.88983 -35.935839,10.29798 -15.218337,-6.60437 -24.144605,-26.88898 -14.61236,-41.53623 9.751891,-15.5834 32.247289,-16.01405 46.808919,-7.34252 17.59219,8.84611 27.9685,32.35176 17.85916,50.32695 -5.52971,4.65801 -2.82088,7.49605 2.16478,10.51354 14.84487,-16.1335 10.98519,-42.81962 -4.32586,-57.26942 -15.72087,-16.29742 -44.51023,-22.85497 -63.005038,-7.47945 -3.30396,2.84414 -6.018568,6.3714 -7.900601,10.30494 z"
       id="path2180"
       style="fill:#fffa66;fill-opacity:1;fill-rule:evenodd;stroke:#554500;stroke-width:2.87976956;stroke-linecap:round;stroke-linejoin:round;stroke-miterlimit:4;stroke-opacity:1;stroke-dasharray:none" />
    <path
       d="m 124.97164,-157.30392 c -6.78915,18.31409 1.93603,40.65657 15.09955,48.53672 10.7669,7.70638 26.9904,5.83663 33.12088,-9.89615 6.20902,-15.39854 -2.00064,-34.77559 -13.67535,-39.96744 -8.95195,-5.30538 -22.15064,-0.49424 -23.95874,13.90775 -2.54222,16.55442 13.9231,31.97598 24.14164,21.23879 6.09579,-6.75952 1.97614,-21.28809 -5.79328,-21.74352 -9.70217,-3.39709 -5.79438,17.6184 -0.7474,11.02957 -2.09886,-2.94459 -2.80165,-7.92214 -0.10437,-3.88879 9.36612,1.25028 -0.30074,17.69663 -6.39059,9.58181 -6.80415,-4.00748 -7.69669,-18.34949 -0.8925,-23.07094 11.75918,-8.46535 27.79459,9.29013 23.16234,26.4564 -3.65996,14.58278 -17.80064,16.88983 -26.80074,10.29798 -11.34974,-6.60437 -18.00689,-26.88898 -10.89781,-41.53623 7.2729,-15.5834 24.04985,-16.01404 34.90981,-7.34252 13.12015,8.84611 20.85874,32.35176 13.31926,50.32695 -4.12403,4.65802 -2.10378,7.49605 1.61449,10.51354 11.07121,-16.13351 8.19268,-42.81963 -3.22622,-57.26942 -11.72453,-16.29742 -33.19545,-22.85497 -46.98877,-7.47945 -2.46407,2.84414 -4.48861,6.3714 -5.89222,10.30495 z"
       id="path4422"
       style="fill:#fffa66;fill-opacity:1;fill-rule:evenodd;stroke:#554500;stroke-width:2.87976956;stroke-linecap:round;stroke-linejoin:round;stroke-miterlimit:4;stroke-opacity:1;stroke-dasharray:none" />
    <path
       d="m 192.02729,-138.98778 c 8.66685,14.08532 -2.47147,31.26885 -19.27566,37.32945 -13.74472,5.926957 -34.4552,4.488932 -42.2812,-7.61109 -7.92628,-11.84298 2.55398,-26.74581 17.45759,-30.73885 11.4278,-4.08035 28.27689,-0.3801 30.58505,10.69642 3.24532,12.73195 -17.77383,24.59263 -30.81854,16.33469 -7.78171,-5.19873 -2.52269,-16.37261 7.39553,-16.72288 12.38553,-2.61268 7.39696,13.55025 0.95412,8.48281 2.67936,-2.26467 3.57653,-6.09289 0.1332,-2.99085 -11.95655,0.96158 0.38391,13.61041 8.15804,7.36933 8.68597,-3.08214 9.82537,-14.11253 1.13935,-17.74378 -15.01144,-6.51069 -35.4818,7.145 -29.56839,20.34753 4.6722,11.21558 22.72379,12.98992 34.21306,7.92014 14.48878,-5.0794 22.98712,-20.68023 13.91185,-31.94538 -9.28438,-11.98514 -30.70136,-12.31635 -44.5649,-5.64712 -16.74882,6.80353 -26.62771,24.88164 -17.003,38.70631 5.2646,3.58245 2.68567,-3.0941 -2.06098,-0.77335 -14.13323,-12.40822 -10.45857,-24.07316 4.11847,-35.18646 14.96721,-12.5343 42.37641,-17.57768 59.98458,-5.75242 3.14556,2.18742 5.73005,4.90024 7.52183,7.9255 z"
       id="path4418"
       style="fill:#fffa66;fill-opacity:1;fill-rule:evenodd;stroke:#554500;stroke-width:2.87976956;stroke-linecap:round;stroke-linejoin:round;stroke-miterlimit:4;stroke-opacity:1;stroke-dasharray:none" />
    <path
       d="m 60.393249,-100.36747 133.049121,0 21.42102,18.365301 -176.611108,0 22.140967,-18.365301 z"
       id="rect2158"
       style="fill:url(#linearGradient45113);fill-opacity:1;fill-rule:evenodd;stroke:url(#linearGradient45115);stroke-width:5.75954056;stroke-linecap:round;stroke-linejoin:miter;stroke-miterlimit:4;stroke-opacity:1;stroke-dasharray:none;stroke-dashoffset:0" />
    <path
       d="m 129.62822,-102.88026 c 9.49834,-10.46229 14.12292,-25.6723 7.5594,-38.87688 -1.88198,-3.93352 -4.61544,-7.41505 -7.91936,-10.25919 -9.24741,-7.68776 -21.10311,-9.85398 -32.577404,-8.09935 -11.474297,1.75462 -22.557131,7.51004 -30.417566,15.65875 -15.31105,14.44978 -19.164533,41.10192 -4.319655,57.23542 4.98567,-3.017492 7.689532,-5.961147 2.159827,-10.61915 -10.109338,-17.9752 0.226379,-41.36987 17.818575,-50.21598 14.561624,-8.67152 37.044343,-8.20399 46.796253,7.37941 8.34072,12.81634 2.23407,29.2897 -9.53923,37.79697 m -36.357095,0 c -1.83272,-1.91981 -3.736426,-3.85671 -4.679626,-6.65946 -6.211173,-17.16628 15.370206,-34.92325 31.137511,-26.45789 9.1234,4.72144 7.86347,19.03067 -1.2599,23.03816 -8.165588,8.11482 -21.017919,-8.28896 -8.459324,-9.53924 3.616704,-4.03334 2.634294,1.0151 -0.179986,3.95969 6.76726,6.58882 11.92928,-14.5562 -1.079914,-11.15911 -10.417646,0.45542 -15.912932,15.01874 -7.73938,21.77826 13.701564,10.737193 35.806134,-4.68389 32.397404,-21.23831 -1.81829,-10.80148 -12.16327,-16.22868 -22.31821,-16.01871 -3.38498,0.07 -6.898397,0.83349 -9.899209,2.15983 -15.65407,5.19186 -26.503947,24.55825 -18.178545,39.9568 0.04178,0.08 0.179985,0.17998 0.179985,0.17998"
       id="path4420"
       style="fill:#fffa66;fill-opacity:1;fill-rule:evenodd;stroke:#554500;stroke-width:2.87976956;stroke-linecap:butt;stroke-linejoin:bevel;stroke-miterlimit:4;stroke-opacity:1;stroke-dasharray:none" />
  </g>
</svg>
