<?xml version="1.0" encoding="UTF-8" standalone="no"?>
<!-- Created with Inkscape (http://www.inkscape.org/) -->

<svg
   xmlns:svg="http://www.w3.org/2000/svg"
   xmlns="http://www.w3.org/2000/svg"
   version="1.0"
   width="300"
   height="236.54079"
   id="svg548">
  <defs
     id="defs550" />
  <path
     d="m 196.89851,51.451749 c 8.89425,1.58223 61.40163,17.33611 55.49847,37.99601 C 238.94042,137.67721 148.89442,153.83182 82.312057,156.12514 135.40853,145.19694 201.05242,124.87975 217.67009,93.774039 232.36316,65.058329 202.17425,56.200089 196.89851,51.451749 z"
     id="path553"
     style="fill-rule:evenodd" />
  <path
     d="M 220.18978,167.97814 C 217.81645,158.74851 194.87422,68.563159 145.82599,68.299459 124.73002,67.244639 104.13146,91.170339 92.858206,118.08379 80.893857,145.75401 80.572145,169.02762 62.760307,169.29666 45.6429,169.55903 55.90401,128.68661 64.078826,98.888759 72.253642,65.926119 98.623684,0.26454911 137.12377,8.3911402e-4 175.62418,-0.26287089 199.88493,61.707199 205.42237,78.056159 c 12.65778,41.137451 14.50371,79.110131 14.76741,89.921981 z"
     id="path568"
     style="fill:#759fbf;fill-rule:evenodd" />
  <path
     d="m 5.1916123,200.03665 2.0303188,-12.10604 c 1.9638428,-0.78044 7.0428569,-2.22731 13.1597839,-2.28665 20.504183,-0.1977 18.261535,15.56952 18.353881,19.68176 l -0.108682,29.06342 -9.655291,1.91294 -0.0016,-4.54164 c -1.412466,0.9548 -4.23903,4.54164 -11.773256,4.78034 -7.06556,0 -17.42797554,-4.30294 -17.19283481,-19.36406 0.00162166,-13.38688 11.30297381,-16.80936 19.31233281,-16.74835 6.348793,0.0493 8.367777,3.67752 8.242893,3.45682 0.132985,-3.7992 -0.543243,-6.59793 -7.881242,-6.80529 -4.432023,-0.12669 -14.4911711,3.00109 -14.4863037,2.95675 m 13.7711367,10.92553 c -4.164419,-0.059 -8.523432,3.00276 -8.596409,7.17101 0.0146,4.66199 4.709296,7.65141 8.242892,7.65141 3.531964,0 8.964528,-2.6307 8.949926,-7.41271 0,-5.25807 -4.594146,-7.3947 -8.596409,-7.40971 z"
     id="path578"
     style="fill-rule:evenodd" />
  <path
     d="m 44.716437,188.40034 -0.126685,48.12677 11.250916,-2.52902 0.05367,-27.28717 c 0.0083,-4.06291 5.256406,-8.87058 11.83033,-8.87058 1.400197,-2.8124 4.031567,-9.98807 4.673991,-11.62097 -14.690733,0.13002 -14.884427,4.84668 -17.442786,7.19535 -0.021,-4.42396 0,-7.08 0,-7.08 l -10.23944,2.06562 z"
     id="path579"
     style="fill-rule:evenodd" />
  <path
     d="m 107.54094,194.71257 c -0.10901,-0.0553 -5.38476,-8.11281 -16.961387,-8.0378 -10.842858,-0.075 -23.009569,4.71966 -23.2306,24.85383 0.07301,17.69882 11.650971,24.48277 23.228933,24.48444 12.391414,0 17.330444,-8.7779 17.626484,-8.9976 -1.47521,-1.40186 -7.00632,-7.15301 -7.00632,-7.15301 0,0 -3.465825,6.04719 -10.176102,6.19354 -6.711944,0.14802 -12.53743,-6.41457 -12.610773,-14.52737 -0.07468,-8.11281 4.12958,-13.7176 12.0937,-13.64292 8.922255,0 10.914535,3.90688 10.914535,3.90688 l 6.12153,-7.07999 z"
     id="path580"
     style="fill-rule:evenodd" />
  <path
     d="m 111.59684,236.2344 10.47048,-2.21197 0.15302,-29.50082 c 0.026,-3.09343 4.05123,-7.88978 10.76151,-7.81676 6.4159,0 7.83577,4.64698 7.81777,5.23573 l 0.14668,34.1458 10.32379,-2.13896 0.075,-36.21143 c 0.073,-3.48549 -6.87963,-10.76851 -18.06887,-10.69217 -8.07981,0.10735 -10.69984,3.23179 -11.06089,3.46582 l 0,-19.83946 -10.61983,2.87741 0.001,62.68681 z"
     id="path581"
     style="fill-rule:evenodd" />
  <path
     d="m 160.41504,178.04622 4.79301,-1.25384 0.0747,57.08203 -4.86769,0.88479 0,-56.71298 z"
     id="path582"
     style="fill-rule:evenodd" />
  <path
     d="m 173.39353,194.93393 4.20393,-1.9176 -0.073,40.93109 -4.05624,0.88479 -0.0747,-39.89828 z m -0.9578,-14.74874 3.39248,-2.8024 2.80206,3.09677 -3.39248,2.87541 -2.80206,-3.16978 z"
     id="path587"
     style="fill-rule:evenodd" />
  <path
     d="m 185.48857,194.04914 4.79301,-1.03281 0,8.55653 c 0,0.36772 2.6557,-9.58935 15.33982,-9.51467 12.31473,-0.0733 14.30534,9.44 14.232,11.57863 l 0.0733,30.08956 -4.20259,0.95947 0.0553,-29.72184 c 0.0503,-0.86846 -1.89793,-8.18582 -10.60049,-8.11281 -8.70255,0.075 -14.7494,6.49125 -14.7494,10.54615 l 0,26.18268 -4.86769,1.32719 -0.0733,-40.85808 z"
     id="path588"
     style="fill-rule:evenodd" />
  <path
     d="m 261.72595,233.46201 -4.793,1.03282 0,-8.55687 c 0,-0.36772 -2.65571,9.58968 -15.33983,9.51467 -12.31473,0.0733 -14.30534,-9.44 -14.232,-11.57863 l -0.0733,-30.08957 5.09205,-1.08648 0,29.72184 c 0,0.81179 0.95313,8.31284 9.65569,8.23983 8.70256,-0.075 14.81275,-5.41143 14.87642,-13.34188 l 0,-23.45029 4.74067,-1.26385 0.0733,40.85841 z"
     id="path589"
     style="fill-rule:evenodd" />
  <path
     d="m 271.22196,192.72495 -3.36681,2.66738 12.8338,16.70868 -13.7866,19.63309 3.55683,2.6037 12.96016,-18.23423 13.27753,18.36125 3.30313,-2.66737 -14.229,-19.63143 11.43494,-16.13927 -3.49482,-2.92274 -10.41847,14.93243 -12.07069,-15.31149 z"
     id="path590"
     style="fill-rule:evenodd" />
</svg>
