<?xml version="1.0" encoding="UTF-8" standalone="no"?>
<!-- Created with Inkscape (http://www.inkscape.org/) -->

<svg
   xmlns:dc="http://purl.org/dc/elements/1.1/"
   xmlns:cc="http://creativecommons.org/ns#"
   xmlns:rdf="http://www.w3.org/1999/02/22-rdf-syntax-ns#"
   xmlns:svg="http://www.w3.org/2000/svg"
   xmlns="http://www.w3.org/2000/svg"
   version="1.0"
   width="200"
   height="200"
   id="svg2424">
  <metadata
     id="metadata3206">
    <rdf:RDF>
      <cc:Work
         rdf:about="">
        <dc:format>image/svg+xml</dc:format>
        <dc:type
           rdf:resource="http://purl.org/dc/dcmitype/StillImage" />
        <dc:title></dc:title>
      </cc:Work>
    </rdf:RDF>
  </metadata>
  <defs
     id="defs2426" />
  <path
     d="M 99.982978,9.4299079 C 91.920693,29.201751 87.057917,42.128656 78.081625,61.311918 83.585216,67.143195 90.340614,73.933635 101.31135,81.606952 89.516733,76.756627 81.471355,71.884513 75.458912,66.827107 63.970969,90.7953 45.972667,124.94368 9.4483145,190.57009 38.155229,173.99182 60.408321,163.77892 81.147131,159.87687 c -0.890533,-3.82576 -1.396835,-7.9676 -1.362448,-12.29473 l 0.03406,-0.91557 c 0.455512,-18.39852 10.022891,-32.53528 21.356367,-31.57611 11.33348,0.95916 20.14288,16.65456 19.68737,35.05308 -0.0857,3.45517 -0.47603,6.79044 -1.15808,9.87502 20.51365,4.01105 42.52879,14.20216 70.84729,30.55153 -5.58386,-10.27831 -10.56793,-19.54295 -15.32754,-28.37161 -7.49716,-5.80948 -15.31706,-13.37379 -31.26818,-21.5594 10.96388,2.84479 18.81388,6.13649 24.9328,9.80965 C 120.49649,60.352755 116.57776,48.374114 99.982978,9.4299079 z"
     id="path2518"
     style="fill:#1793d1;fill-opacity:1;fill-rule:evenodd;stroke:none" />
  <g
     transform="matrix(0.8746356,0,0,0.8746356,-26.046795,-109.83508)"
     id="text2638"
     style="font-size:8.25130367px;font-style:normal;font-weight:normal;fill:#1793d1;fill-opacity:1;stroke:none;font-family:DejaVu Sans Mono">
    <path
       d="m 239.84053,313.69965 0,-5.20945 -1.94598,0 0,-0.697 4.68164,0 0,0.697 -1.95404,0 0,5.20945 -0.78162,0"
       id="path3940"
       style="fill:#1793d1;fill-opacity:1" />
    <path
       d="m 243.39004,313.69965 0,-5.90645 1.17646,0 1.39805,4.18205 c 0.12892,0.38947 0.22293,0.6809 0.28202,0.87429 0.0671,-0.21488 0.1719,-0.53048 0.31426,-0.94681 l 1.41417,-4.10953 1.05155,0 0,5.90645 -0.75341,0 0,-4.94353 -1.71634,4.94353 -0.70506,0 -1.70828,-5.02814 0,5.02814 -0.75342,0"
       id="path3942"
       style="fill:#1793d1;fill-opacity:1" />
  </g>
</svg>
